<?xml version="1.0" standalone="no"?><!DOCTYPE svg PUBLIC "-//W3C//DTD SVG 1.1//EN" "http://www.w3.org/Graphics/SVG/1.1/DTD/svg11.dtd"><svg t="1591351670555" class="icon" viewBox="0 0 1024 1024" version="1.1" xmlns="http://www.w3.org/2000/svg" p-id="4354" xmlns:xlink="http://www.w3.org/1999/xlink" width="200" height="200"><defs><style type="text/css"></style></defs><path d="M553.86217486 156.61769104a59.43740844 59.43740844 0 0 0-79.86800372 0L151.037323 463.27823652a29.79286193 29.79286193 0 0 0 39.89685059 44.25361633l5.13542175-4.87586976V822.7208252a59.58572388 59.58572388 0 0 0 59.58572388 59.65988159h173.39942156v-179.38780189a41.95472717 41.95472717 0 0 1 41.9732666-42.01034546h81.59231544a41.95472717 41.95472717 0 0 1 41.9732666 42.01034546v179.38780189h177.51502991a59.58572388 59.58572388 0 0 0 59.6042633-59.6598816V506.56780256c13.2371521 11.97647094 32.01759338 11.06803894 43.03001404-1.20506287a29.79286193 29.79286193 0 0 0-2.15057373-42.08450317L553.86217486 156.63623047Z" fill="#bfbfbf" p-id="4355"></path></svg>